<?xml version="1.0" standalone="no"?>
<!DOCTYPE svg PUBLIC "-//W3C//DTD SVG 20010904//EN"
 "http://www.w3.org/TR/2001/REC-SVG-20010904/DTD/svg10.dtd">
<svg version="1.0" xmlns="http://www.w3.org/2000/svg"
 width="192.000000pt" height="191.000000pt" viewBox="0 0 192.000000 191.000000"
 preserveAspectRatio="xMidYMid meet">

<g transform="translate(0.000000,191.000000) scale(0.100000,-0.100000)"
fill="#000000" stroke="none">
<path d="M813 1900 c-354 -64 -646 -314 -753 -647 -41 -129 -54 -219 -47 -348
22 -419 303 -766 712 -877 110 -30 316 -35 435 -10 372 77 665 370 742 740 16
80 19 121 15 232 -6 149 -22 222 -74 344 -113 264 -351 468 -638 546 -91 25
-303 35 -392 20z m145 -187 c24 -13 46 -31 48 -38 3 -8 21 -26 40 -40 l34 -26
-6 39 c-4 29 -2 43 11 55 22 23 55 6 55 -29 0 -37 34 -80 95 -119 85 -54 101
-92 76 -183 -12 -43 -102 -147 -148 -171 -26 -13 -83 -14 -116 -2 -16 7 -43 5
-84 -6 -53 -13 -64 -13 -96 1 -25 10 -37 21 -37 35 0 26 30 43 52 30 13 -7 18
-4 23 10 3 11 16 21 28 24 20 3 21 4 3 12 -13 5 -35 0 -72 -18 -45 -22 -54
-31 -54 -54 0 -73 82 -151 290 -273 215 -127 294 -229 294 -381 0 -66 -5 -86
-32 -142 -60 -120 -162 -185 -307 -194 -137 -9 -263 28 -401 118 -52 34 -63
46 -69 76 -7 38 3 55 32 58 10 1 28 7 40 13 18 10 35 8 97 -14 70 -24 77 -24
98 -10 14 10 44 16 83 16 113 0 165 63 85 102 -25 13 -59 18 -115 18 -119 0
-148 27 -106 97 26 42 16 49 -97 73 -49 10 -99 23 -111 29 -29 16 -38 59 -18
93 16 28 16 29 -10 51 -114 95 -123 114 -78 157 40 38 34 74 -25 130 -27 27
-50 51 -50 55 0 3 7 19 15 35 16 31 85 73 178 110 l58 23 -21 21 c-11 12 -20
32 -20 44 0 25 35 52 70 53 23 1 23 1 -8 15 -43 19 -41 54 3 69 17 5 34 15 38
22 5 8 28 13 57 13 40 0 51 4 60 21 14 25 54 19 118 -18z"/>
<path d="M893 1699 c21 -12 47 -67 47 -100 0 -19 -3 -17 -23 12 -27 41 -79 69
-126 69 l-35 0 42 -36 c57 -49 79 -89 25 -45 -36 29 -89 51 -121 51 -8 0 6
-15 30 -33 54 -41 123 -131 105 -135 -8 -2 -32 1 -55 7 -23 5 -42 6 -42 3 0
-4 18 -25 41 -48 l41 -42 -39 -6 c-66 -12 -70 -23 -9 -30 31 -4 56 -11 56 -15
0 -5 -9 -20 -21 -35 -25 -32 -22 -32 37 -1 56 30 86 31 128 6 17 -10 49 -22
71 -25 66 -11 105 -27 105 -42 0 -19 -9 -18 -45 6 -16 11 -37 20 -45 20 -8 0
-1 -7 15 -16 67 -35 53 -41 -45 -19 -14 3 -10 -1 10 -9 50 -21 93 -19 124 5
38 30 33 55 -14 79 -43 22 -55 46 -17 35 58 -17 77 -28 77 -48 0 -19 3 -18 31
11 28 29 48 80 49 125 0 10 -4 15 -10 12 -5 -3 -10 -14 -10 -24 0 -27 -53 -32
-93 -9 -37 21 -59 32 -104 48 -29 11 -52 44 -40 57 11 10 46 -9 53 -29 5 -18
8 -19 22 -5 14 14 13 18 -2 42 -9 14 -35 38 -57 54 -22 16 -49 41 -60 56 -12
14 -38 34 -60 45 -40 21 -68 27 -36 9z"/>
<path d="M664 1546 c-17 -13 -17 -16 15 -45 37 -35 32 -53 -17 -66 -40 -10
-173 -73 -194 -92 -27 -24 -22 -49 16 -72 35 -22 66 -73 66 -110 0 -11 -14
-36 -31 -55 l-31 -35 25 -23 c13 -13 43 -38 66 -56 45 -37 49 -48 25 -94 -22
-43 -7 -54 98 -74 92 -17 148 -44 148 -70 0 -9 -10 -32 -21 -51 -29 -46 -18
-53 91 -53 98 0 149 -19 164 -61 23 -67 -37 -124 -128 -122 -72 2 -99 -5 -92
-22 8 -22 -22 -19 -98 10 -74 28 -97 31 -93 13 1 -9 -8 -12 -28 -10 -25 2 -27
1 -12 -8 60 -37 323 -57 402 -31 80 27 135 87 135 147 0 60 -52 110 -224 215
-117 71 -243 194 -282 274 -24 50 -29 73 -29 137 0 65 5 85 30 137 26 53 34
61 65 66 77 14 76 13 29 61 -23 24 -40 47 -36 50 3 4 25 2 49 -4 48 -12 51
-11 42 11 -11 29 -122 53 -150 33z"/>
<path d="M1200 1537 c0 -2 19 -19 43 -37 23 -19 36 -26 28 -17 -15 19 -71 61
-71 54z"/>
<path d="M1190 1450 c8 -5 20 -10 25 -10 6 0 3 5 -5 10 -8 5 -19 10 -25 10 -5
0 -3 -5 5 -10z"/>
<path d="M693 1333 c-32 -45 -46 -101 -40 -164 11 -129 121 -258 329 -388 120
-75 192 -141 204 -185 10 -40 -4 -92 -33 -126 -72 -86 -230 -109 -447 -64 -38
7 -71 12 -74 10 -9 -9 148 -91 218 -114 97 -32 229 -35 310 -8 73 25 160 111
183 180 22 63 22 149 0 212 -26 77 -121 164 -282 260 -204 120 -267 184 -281
282 -6 49 -5 61 12 85 11 16 19 30 17 32 -2 2 -25 6 -50 10 -43 6 -48 5 -66
-22z"/>
</g>
</svg>
